# xmcd
#
# Track frame offsets:
#	182
#	13252
#	26007
#	41360
#	55497
#	70785
#	85645
#	99840
#	113120
#	125400
#	139632
#	153815
#	167610
#	182002
#	195510
#	210507
#
# Disc length: 3006 seconds
#
# Revision: 0
# Processed by: cddbd v1.5.1PL0 Copyright (c) Steve Scherf et al.
# Submitted via: EasyCDDAExtractor 4.6.9.1
#
DISCID=c60bbc10
DTITLE=Frank Sinatra - I Don't Know Why Vol1
DYEAR=1991
DGENRE=Blues
TTITLE0=For Every Man There's A Woman
TTITLE1=I Don't Know Why
TTITLE2=Someone To Watch Over Me
TTITLE3=Love Me
TTITLE4=There's No Business Like Show Business
TTITLE5=The Song Is You
TTITLE6=September Song
TTITLE7=Oh What A Beautiful Morning
TTITLE8=The Nearness Of You
TTITLE9=If I Had You
TTITLE10=Nevertheless
TTITLE11=You Go To My Head
TTITLE12=My Melancholy Baby
TTITLE13=How Deep Is The Ocean
TTITLE14=Embraceable You
TTITLE15=(I Got A Woman Crazy For Me) She's Funny That Way
EXTD=
EXTT0=
EXTT1=
EXTT2=
EXTT3=
EXTT4=
EXTT5=
EXTT6=
EXTT7=
EXTT8=
EXTT9=
EXTT10=
EXTT11=
EXTT12=
EXTT13=
EXTT14=
EXTT15=
PLAYORDER=
